<?xml version="1.0" encoding="UTF-8" standalone="no"?>
<svg
   width="496"
   height="496"
   version="1"
   id="svg6"
   xmlns:xlink="http://www.w3.org/1999/xlink"
   xmlns="http://www.w3.org/2000/svg"
   xmlns:svg="http://www.w3.org/2000/svg"
   xmlns:rdf="http://www.w3.org/1999/02/22-rdf-syntax-ns#"
   xmlns:cc="http://creativecommons.org/ns#"
   xmlns:dc="http://purl.org/dc/elements/1.1/">
  <metadata
     id="metadata12">
    <rdf:RDF>
      <cc:Work
         rdf:about="">
        <dc:format>image/svg+xml</dc:format>
        <dc:type
           rdf:resource="http://purl.org/dc/dcmitype/StillImage" />
      </cc:Work>
    </rdf:RDF>
  </metadata>
  <defs
     id="defs10">
    <linearGradient
       id="linearGradient5562">
      <stop
         style="stop-color:#699ad7;stop-opacity:1"
         offset="0"
         id="stop5564" />
      <stop
         id="stop5566"
         offset="0.24345198"
         style="stop-color:#7eb1dd;stop-opacity:1" />
      <stop
         style="stop-color:#7ebae4;stop-opacity:1"
         offset="1"
         id="stop5568" />
    </linearGradient>
    <linearGradient
       id="linearGradient5053">
      <stop
         style="stop-color:#415e9a;stop-opacity:1"
         offset="0"
         id="stop5055" />
      <stop
         id="stop5057"
         offset="0.23168644"
         style="stop-color:#4a6baf;stop-opacity:1" />
      <stop
         style="stop-color:#5277c3;stop-opacity:1"
         offset="1"
         id="stop5059" />
    </linearGradient>
    <linearGradient
       id="linearGradient5960">
      <stop
         id="stop5962"
         offset="0"
         style="stop-color:#637ddf;stop-opacity:1" />
      <stop
         style="stop-color:#649afa;stop-opacity:1"
         offset="0.23168644"
         id="stop5964" />
      <stop
         id="stop5966"
         offset="1"
         style="stop-color:#719efa;stop-opacity:1" />
    </linearGradient>
    <linearGradient
       y2="515.97058"
       x2="282.26105"
       y1="338.62445"
       x1="213.95642"
       gradientTransform="translate(983.36076,293.12113)"
       gradientUnits="userSpaceOnUse"
       id="linearGradient5855"
       xlink:href="#linearGradient5960" />
    <linearGradient
       xlink:href="#linearGradient5562"
       id="linearGradient4328"
       gradientUnits="userSpaceOnUse"
       gradientTransform="translate(70.650339,-1055.1511)"
       x1="200.59668"
       y1="351.41116"
       x2="290.08701"
       y2="506.18814" />
    <linearGradient
       xlink:href="#linearGradient5053"
       id="linearGradient4330"
       gradientUnits="userSpaceOnUse"
       gradientTransform="translate(864.69589,-1491.3405)"
       x1="-584.19934"
       y1="782.33563"
       x2="-496.29703"
       y2="937.71399" />
  </defs>
  <g
     id="g946"
     transform="matrix(0.97173996,0,0,0.97173996,4.043873,36.112138)">
    <g
       id="layer7"
       style="display:none"
       transform="translate(-23.75651,-24.84972)">
      <rect
         transform="translate(-132.5822,958.04022)"
         style="color:#000000;clip-rule:nonzero;display:inline;overflow:visible;visibility:visible;opacity:1;isolation:auto;mix-blend-mode:normal;color-interpolation:sRGB;color-interpolation-filters:linearRGB;solid-color:#000000;solid-opacity:1;fill:#ffffff;fill-opacity:1;fill-rule:evenodd;stroke:none;stroke-width:3;stroke-linecap:butt;stroke-linejoin:round;stroke-miterlimit:4;stroke-dasharray:none;stroke-dashoffset:0;stroke-opacity:1;marker:none;color-rendering:auto;image-rendering:auto;shape-rendering:auto;text-rendering:auto;enable-background:accumulate"
         id="rect5389"
         width="1543.4283"
         height="483.7439"
         x="132.5822"
         y="-957.77832" />
    </g>
    <g
       id="layer6"
       style="display:none"
       transform="translate(-156.33871,933.1905)">
      <rect
         y="-958.02759"
         x="132.65129"
         height="484.30399"
         width="550.41602"
         id="rect5379"
         style="color:#000000;clip-rule:nonzero;display:inline;overflow:visible;visibility:visible;opacity:1;isolation:auto;mix-blend-mode:normal;color-interpolation:sRGB;color-interpolation-filters:linearRGB;solid-color:#000000;solid-opacity:1;fill:#5c201e;fill-opacity:1;fill-rule:evenodd;stroke:none;stroke-width:3;stroke-linecap:butt;stroke-linejoin:round;stroke-miterlimit:4;stroke-dasharray:none;stroke-dashoffset:0;stroke-opacity:1;marker:none;color-rendering:auto;image-rendering:auto;shape-rendering:auto;text-rendering:auto;enable-background:accumulate" />
      <rect
         style="color:#000000;clip-rule:nonzero;display:inline;overflow:visible;visibility:visible;opacity:1;isolation:auto;mix-blend-mode:normal;color-interpolation:sRGB;color-interpolation-filters:linearRGB;solid-color:#000000;solid-opacity:1;fill:#c24a46;fill-opacity:1;fill-rule:evenodd;stroke:none;stroke-width:3;stroke-linecap:butt;stroke-linejoin:round;stroke-miterlimit:4;stroke-dasharray:none;stroke-dashoffset:0;stroke-opacity:1;marker:none;color-rendering:auto;image-rendering:auto;shape-rendering:auto;text-rendering:auto;enable-background:accumulate"
         id="rect5372"
         width="501.94415"
         height="434.30405"
         x="156.12303"
         y="-933.02759" />
      <rect
         style="color:#000000;clip-rule:nonzero;display:inline;overflow:visible;visibility:visible;opacity:1;isolation:auto;mix-blend-mode:normal;color-interpolation:sRGB;color-interpolation-filters:linearRGB;solid-color:#000000;solid-opacity:1;fill:#d98d8a;fill-opacity:1;fill-rule:evenodd;stroke:none;stroke-width:3;stroke-linecap:butt;stroke-linejoin:round;stroke-miterlimit:4;stroke-dasharray:none;stroke-dashoffset:0;stroke-opacity:1;marker:none;color-rendering:auto;image-rendering:auto;shape-rendering:auto;text-rendering:auto;enable-background:accumulate"
         id="rect5381"
         width="24.939611"
         height="24.939611"
         x="658.02826"
         y="-958.04022" />
    </g>
    <g
       id="layer1"
       style="display:inline"
       transform="translate(-156.33871,933.1905)">
      <path
         style="color:#000000;clip-rule:nonzero;display:inline;overflow:visible;visibility:visible;opacity:1;isolation:auto;mix-blend-mode:normal;color-interpolation:sRGB;color-interpolation-filters:linearRGB;solid-color:#000000;solid-opacity:1;fill:#5277c3;fill-opacity:1;fill-rule:evenodd;stroke:none;stroke-width:3;stroke-linecap:butt;stroke-linejoin:round;stroke-miterlimit:4;stroke-dasharray:none;stroke-dashoffset:0;stroke-opacity:1;color-rendering:auto;image-rendering:auto;shape-rendering:auto;text-rendering:auto;enable-background:accumulate"
         d="m 309.40365,-710.2521 c 40.73228,70.55837 81.46455,141.11673 122.19683,211.6751 -18.71902,0.1756 -37.43804,0.3512 -56.15706,0.5268 -10.87453,-18.9564 -21.74907,-37.9128 -32.6236,-56.8692 -10.95215,18.8551 -21.9043,37.7102 -32.85645,56.5653 -9.30079,-0.004 -18.60158,-0.007 -27.90237,-0.011 -4.76362,-8.22987 -9.52724,-16.45973 -14.29086,-24.6896 15.60349,-26.83007 31.20698,-53.66013 46.81047,-80.4902 -11.07649,-19.2752 -22.15297,-38.5504 -33.22946,-57.8256 9.35083,-16.29387 18.70167,-32.58773 28.0525,-48.8816 z"
         id="path4861" />
      <path
         style="color:#000000;clip-rule:nonzero;display:inline;overflow:visible;visibility:visible;opacity:1;isolation:auto;mix-blend-mode:normal;color-interpolation:sRGB;color-interpolation-filters:linearRGB;solid-color:#000000;solid-opacity:1;fill:#7ebae4;fill-opacity:1;fill-rule:evenodd;stroke:none;stroke-width:3;stroke-linecap:butt;stroke-linejoin:round;stroke-miterlimit:4;stroke-dasharray:none;stroke-dashoffset:0;stroke-opacity:1;color-rendering:auto;image-rendering:auto;shape-rendering:auto;text-rendering:auto;enable-background:accumulate"
         d="m 353.50926,-797.4433 c -40.73919,70.55437 -81.47837,141.10873 -122.21756,211.6631 -9.51159,-16.12333 -19.02318,-32.24667 -28.53477,-48.37 10.97946,-18.89583 21.95893,-37.79167 32.93839,-56.6875 -21.80507,-0.0573 -43.61014,-0.1146 -65.41521,-0.1719 -4.64713,-8.0566 -9.29427,-16.1132 -13.9414,-24.1698 4.74546,-8.24033 9.49091,-16.48067 14.23637,-24.721 31.03726,0.098 62.07451,0.19593 93.11177,0.2939 11.15457,-19.2301 22.30914,-38.4602 33.46371,-57.6903 18.78623,-0.0488 37.57247,-0.0977 56.3587,-0.1465 z"
         id="use4863" />
      <path
         style="color:#000000;clip-rule:nonzero;display:inline;overflow:visible;visibility:visible;opacity:1;isolation:auto;mix-blend-mode:normal;color-interpolation:sRGB;color-interpolation-filters:linearRGB;solid-color:#000000;solid-opacity:1;fill:#7ebae4;fill-opacity:1;fill-rule:evenodd;stroke:none;stroke-width:3;stroke-linecap:butt;stroke-linejoin:round;stroke-miterlimit:4;stroke-dasharray:none;stroke-dashoffset:0;stroke-opacity:1;color-rendering:auto;image-rendering:auto;shape-rendering:auto;text-rendering:auto;enable-background:accumulate"
         d="m 362.88537,-628.243 c 81.47146,0.004 162.94293,0.008 244.41439,0.012 -9.20743,16.29893 -18.41486,32.59787 -27.62229,48.8968 -21.854,-0.0606 -43.70799,-0.12113 -65.56199,-0.1817 10.85292,18.91237 21.70584,37.82473 32.55876,56.7371 -4.65366,8.05283 -9.30732,16.10567 -13.96098,24.1585 -9.50907,0.0107 -19.01815,0.0213 -28.52722,0.032 -15.43377,-26.92803 -30.86753,-53.85607 -46.3013,-80.7841 -22.23106,-0.0451 -44.46211,-0.0902 -66.69317,-0.1353 -9.4354,-16.2451 -18.8708,-32.4902 -28.3062,-48.7353 z"
         id="use4865" />
      <path
         style="color:#000000;clip-rule:nonzero;display:inline;overflow:visible;visibility:visible;opacity:1;isolation:auto;mix-blend-mode:normal;color-interpolation:sRGB;color-interpolation-filters:linearRGB;solid-color:#000000;solid-opacity:1;fill:#7ebae4;fill-opacity:1;fill-rule:evenodd;stroke:none;stroke-width:3;stroke-linecap:butt;stroke-linejoin:round;stroke-miterlimit:4;stroke-dasharray:none;stroke-dashoffset:0;stroke-opacity:1;color-rendering:auto;image-rendering:auto;shape-rendering:auto;text-rendering:auto;enable-background:accumulate"
         d="m 505.14318,-720.9886 c -40.73228,-70.55837 -81.46455,-141.11673 -122.19683,-211.6751 18.71902,-0.1756 37.43804,-0.3512 56.15706,-0.5268 10.87453,18.9564 21.74907,37.9128 32.6236,56.8692 10.95215,-18.8551 21.9043,-37.7102 32.85645,-56.5653 9.30079,0.004 18.60158,0.007 27.90237,0.011 4.76362,8.22987 9.52724,16.45973 14.29086,24.6896 -15.60349,26.83007 -31.20698,53.66013 -46.81047,80.4902 11.07649,19.2752 22.15297,38.5504 33.22946,57.8256 -9.35083,16.29387 -18.70167,32.58773 -28.0525,48.8816 z"
         id="use4867" />
      <path
         id="path4873"
         d="m 309.40365,-710.2521 c 40.73228,70.55837 81.46455,141.11673 122.19683,211.6751 -18.71902,0.1756 -37.43804,0.3512 -56.15706,0.5268 -10.87453,-18.9564 -21.74907,-37.9128 -32.6236,-56.8692 -10.95215,18.8551 -21.9043,37.7102 -32.85645,56.5653 -9.30079,-0.004 -18.60158,-0.007 -27.90237,-0.011 -4.76362,-8.22987 -9.52724,-16.45973 -14.29086,-24.6896 15.60349,-26.83007 31.20698,-53.66013 46.81047,-80.4902 -11.07649,-19.2752 -22.15297,-38.5504 -33.22946,-57.8256 9.35083,-16.29387 18.70167,-32.58773 28.0525,-48.8816 z"
         style="color:#000000;clip-rule:nonzero;display:inline;overflow:visible;visibility:visible;opacity:1;isolation:auto;mix-blend-mode:normal;color-interpolation:sRGB;color-interpolation-filters:linearRGB;solid-color:#000000;solid-opacity:1;fill:#5277c3;fill-opacity:1;fill-rule:evenodd;stroke:none;stroke-width:3;stroke-linecap:butt;stroke-linejoin:round;stroke-miterlimit:4;stroke-dasharray:none;stroke-dashoffset:0;stroke-opacity:1;color-rendering:auto;image-rendering:auto;shape-rendering:auto;text-rendering:auto;enable-background:accumulate" />
      <path
         id="use4875"
         d="m 451.3364,-803.53264 c -81.47147,-0.004 -162.94293,-0.008 -244.4144,-0.012 9.20743,-16.29895 18.41486,-32.5979 27.62229,-48.89685 21.854,0.0606 43.70799,0.12117 65.56199,0.18175 -10.85292,-18.91239 -21.70583,-37.82478 -32.55875,-56.73717 4.65366,-8.05284 9.30731,-16.10567 13.96097,-24.15851 9.50907,-0.0105 19.01815,-0.021 28.52722,-0.0315 15.43377,26.92805 30.86753,53.85609 46.3013,80.78414 22.23106,0.0451 44.46211,0.0902 66.69317,0.13524 9.4354,16.24497 18.87081,32.48993 28.30621,48.7349 z"
         style="color:#000000;clip-rule:nonzero;display:inline;overflow:visible;visibility:visible;opacity:1;isolation:auto;mix-blend-mode:normal;color-interpolation:sRGB;color-interpolation-filters:linearRGB;solid-color:#000000;solid-opacity:1;fill:#5277c3;fill-opacity:1;fill-rule:evenodd;stroke:none;stroke-width:3;stroke-linecap:butt;stroke-linejoin:round;stroke-miterlimit:4;stroke-dasharray:none;stroke-dashoffset:0;stroke-opacity:1;color-rendering:auto;image-rendering:auto;shape-rendering:auto;text-rendering:auto;enable-background:accumulate" />
      <path
         id="use4877"
         d="m 460.87178,-633.8425 c 40.73919,-70.55435 81.47838,-141.10869 122.21757,-211.66304 9.51159,16.12334 19.02318,32.24669 28.53477,48.37003 -10.97946,18.89584 -21.95893,37.79167 -32.93839,56.68751 21.80507,0.0573 43.61013,0.11453 65.4152,0.1718 4.64713,8.0566 9.29427,16.1132 13.9414,24.1698 -4.74545,8.24037 -9.49091,16.48073 -14.23636,24.7211 -31.03726,-0.098 -62.07451,-0.196 -93.11177,-0.294 -11.15457,19.23013 -22.30914,38.46027 -33.46371,57.6904 -18.78624,0.0488 -37.57247,0.0976 -56.35871,0.1464 z"
         style="color:#000000;clip-rule:nonzero;display:inline;overflow:visible;visibility:visible;opacity:1;isolation:auto;mix-blend-mode:normal;color-interpolation:sRGB;color-interpolation-filters:linearRGB;solid-color:#000000;solid-opacity:1;fill:#5277c3;fill-opacity:1;fill-rule:evenodd;stroke:none;stroke-width:3;stroke-linecap:butt;stroke-linejoin:round;stroke-miterlimit:4;stroke-dasharray:none;stroke-dashoffset:0;stroke-opacity:1;color-rendering:auto;image-rendering:auto;shape-rendering:auto;text-rendering:auto;enable-background:accumulate" />
      <g
         id="layer2"
         style="display:none"
         transform="translate(72.039038,-1799.4476)">
        <path
           d="M 460.60629,594.72881 209.74183,594.7288 84.309616,377.4738 209.74185,160.21882 l 250.86446,1e-5 125.43222,217.255 z"
           id="path6032"
           style="color:#000000;display:inline;overflow:visible;visibility:visible;opacity:0.236;fill:#4e4d52;fill-opacity:1;fill-rule:nonzero;stroke:none;stroke-width:3;stroke-linecap:butt;stroke-linejoin:round;stroke-miterlimit:4;stroke-dasharray:none;stroke-dashoffset:0;stroke-opacity:1;marker:none;enable-background:accumulate" />
        <path
           transform="translate(0,-308.26772)"
           style="color:#000000;display:inline;overflow:visible;visibility:visible;opacity:1;fill:#4e4d52;fill-opacity:1;fill-rule:nonzero;stroke:none;stroke-width:3;stroke-linecap:butt;stroke-linejoin:round;stroke-miterlimit:4;stroke-dasharray:none;stroke-dashoffset:0;stroke-opacity:1;marker:none;enable-background:accumulate"
           id="path5875"
           d="m 385.59154,773.06721 -100.83495,0 -50.41747,-87.32564 50.41748,-87.32563 100.83495,10e-6 50.41748,87.32563 z" />
        <path
           id="path5851"
           d="m 1216.5591,630.26623 c 41.0182,76.04675 82.0363,152.09355 123.0545,228.14035 -14.2269,-0.4205 -28.4538,-0.8411 -42.6807,-1.2616 -14.4941,-26.5908 -28.9882,-53.1817 -43.4823,-79.7725 -13.2169,26.7756 -26.4337,53.5511 -39.6506,80.3267 -10.8958,-6.5995 -21.7917,-13.1989 -32.6875,-19.7984 17.8246,-33.4283 35.6491,-66.8565 53.4737,-100.2848 -12.3719,-24.6298 -24.7438,-49.2597 -37.1157,-73.88955 6.3629,-11.1534 12.7257,-22.3068 19.0886,-33.4602 z"
           style="fill:url(#linearGradient5855);fill-opacity:1;fill-rule:evenodd;stroke:none;stroke-width:3;stroke-linecap:butt;stroke-linejoin:round;stroke-miterlimit:4;stroke-dasharray:none;stroke-opacity:1" />
        <rect
           style="color:#000000;clip-rule:nonzero;display:inline;overflow:visible;visibility:visible;opacity:0.415;isolation:auto;mix-blend-mode:normal;color-interpolation:sRGB;color-interpolation-filters:linearRGB;solid-color:#000000;solid-opacity:1;fill:#c53a3a;fill-opacity:1;fill-rule:nonzero;stroke:none;stroke-width:3;stroke-linecap:butt;stroke-linejoin:round;stroke-miterlimit:4;stroke-dasharray:none;stroke-dashoffset:0;stroke-opacity:1;marker:none;color-rendering:auto;image-rendering:auto;shape-rendering:auto;text-rendering:auto;enable-background:accumulate"
           id="rect5884"
           width="48.834862"
           height="226.22897"
           x="-34.74221"
           y="446.17056"
           transform="rotate(-30)" />
        <path
           transform="translate(0,-308.26772)"
           style="color:#000000;clip-rule:nonzero;display:inline;overflow:visible;visibility:visible;opacity:0.509;isolation:auto;mix-blend-mode:normal;color-interpolation:sRGB;color-interpolation-filters:linearRGB;solid-color:#000000;solid-opacity:1;fill:#000000;fill-opacity:1;fill-rule:evenodd;stroke:none;stroke-width:3;stroke-linecap:butt;stroke-linejoin:round;stroke-miterlimit:4;stroke-dasharray:none;stroke-dashoffset:0;stroke-opacity:1;marker:none;color-rendering:auto;image-rendering:auto;shape-rendering:auto;text-rendering:auto;enable-background:accumulate"
           id="path3428"
           d="m 251.98568,878.63831 -14.02447,24.29109 h -28.04894 l -14.02447,-24.29109 14.02447,-24.2911 h 28.04894 z" />
        <use
           x="0"
           y="0"
           xlink:href="#rect5884"
           id="use4252"
           transform="rotate(60,268.29786,489.4515)"
           width="100%"
           height="100%" />
        <rect
           style="color:#000000;clip-rule:nonzero;display:inline;overflow:visible;visibility:visible;opacity:1;isolation:auto;mix-blend-mode:normal;color-interpolation:sRGB;color-interpolation-filters:linearRGB;solid-color:#000000;solid-opacity:1;fill:#000000;fill-opacity:0.650794;fill-rule:evenodd;stroke:none;stroke-width:1px;stroke-linecap:butt;stroke-linejoin:miter;stroke-miterlimit:4;stroke-dasharray:none;stroke-dashoffset:0;stroke-opacity:1;marker:none;color-rendering:auto;image-rendering:auto;shape-rendering:auto;text-rendering:auto;enable-background:accumulate"
           id="rect4254"
           width="5.3947482"
           height="115.12564"
           x="545.71014"
           y="467.07007"
           transform="rotate(30,575.23539,-154.13386)" />
      </g>
    </g>
    <g
       id="layer3"
       style="display:inline;opacity:1"
       transform="translate(-156.33871,933.1905)">
      <path
         id="path3336-6"
         d="m 309.54892,-710.38827 c 40.73228,70.55837 81.46455,141.11675 122.19683,211.67512 -18.71902,0.1756 -37.43804,0.3512 -56.15706,0.5268 -10.87453,-18.9564 -21.74907,-37.9128 -32.6236,-56.8692 -10.95215,18.8551 -21.9043,37.7102 -32.85645,56.5653 -9.30079,-0.004 -18.60158,-0.007 -27.90237,-0.011 -4.76362,-8.22987 -9.52724,-16.45973 -14.29086,-24.6896 15.60349,-26.83003 31.20698,-53.66007 46.81047,-80.4901 -11.07649,-19.27523 -22.15297,-38.55047 -33.22946,-57.8257 9.35083,-16.29387 18.70167,-32.58775 28.0525,-48.88162 z"
         style="opacity:1;fill:url(#linearGradient4328);fill-opacity:1;fill-rule:evenodd;stroke:none;stroke-width:3;stroke-linecap:butt;stroke-linejoin:round;stroke-miterlimit:4;stroke-dasharray:none;stroke-opacity:1" />
      <use
         height="100%"
         width="100%"
         transform="rotate(60,407.11155,-715.78724)"
         id="use3439-6"
         xlink:href="#path3336-6"
         y="0"
         x="0" />
      <use
         height="100%"
         width="100%"
         transform="rotate(-60,407.31177,-715.70016)"
         id="use3445-0"
         xlink:href="#path3336-6"
         y="0"
         x="0" />
      <use
         height="100%"
         width="100%"
         transform="rotate(180,407.41868,-715.7565)"
         id="use3449-5"
         xlink:href="#path3336-6"
         y="0"
         x="0" />
      <path
         style="color:#000000;clip-rule:nonzero;display:inline;overflow:visible;visibility:visible;opacity:1;isolation:auto;mix-blend-mode:normal;color-interpolation:sRGB;color-interpolation-filters:linearRGB;solid-color:#000000;solid-opacity:1;fill:url(#linearGradient4330);fill-opacity:1;fill-rule:evenodd;stroke:none;stroke-width:3;stroke-linecap:butt;stroke-linejoin:round;stroke-miterlimit:4;stroke-dasharray:none;stroke-dashoffset:0;stroke-opacity:1;color-rendering:auto;image-rendering:auto;shape-rendering:auto;text-rendering:auto;enable-background:accumulate"
         d="m 309.54892,-710.38827 c 40.73228,70.55837 81.46455,141.11675 122.19683,211.67512 -18.71902,0.1756 -37.43804,0.3512 -56.15706,0.5268 -10.87453,-18.9564 -21.74907,-37.9128 -32.6236,-56.8692 -10.95215,18.8551 -21.9043,37.7102 -32.85645,56.5653 -10.54113,-2.26829 -26.58606,6.01638 -31.9377,-7.5219 -4.39393,-6.91787 -12.57856,-15.53043 -6.85074,-23.97221 8.26178,-12.05394 14.90093,-25.28023 22.52611,-37.79439 6.95986,-11.9674 13.91971,-23.9348 20.87957,-35.9022 -11.07649,-19.2752 -22.15297,-38.5504 -33.22946,-57.8256 9.35083,-16.29391 18.70167,-32.58781 28.0525,-48.88172 z"
         id="path4260-0" />
      <use
         height="100%"
         width="100%"
         transform="rotate(120,407.33916,-716.08356)"
         id="use4354-5"
         xlink:href="#path4260-0"
         y="0"
         x="0"
         style="display:inline" />
      <use
         height="100%"
         width="100%"
         transform="rotate(-120,407.28823,-715.86995)"
         id="use4362-2"
         xlink:href="#path4260-0"
         y="0"
         x="0"
         style="display:inline" />
    </g>
  </g>
</svg>
