<?xml version="1.0" encoding="UTF-8"?>
<svg height="16px" viewBox="0 0 16 16" width="16px" xmlns="http://www.w3.org/2000/svg">
    <path d="m 5 5 h 6 v 6 h -6 z m 0 0"/>
    <path d="m 13 5 h 3 v 1 h -3 z m 0 0"/>
    <path d="m 13 7 h 3 v 1 h -3 z m 0 0"/>
    <path d="m 13 9 h 3 v 1 h -3 z m 0 0"/>
    <path d="m 0 6 h 3 v 1 h -3 z m 0 0"/>
    <path d="m 0 8 h 3 v 1 h -3 z m 0 0"/>
    <path d="m 0 10 h 3 v 1 h -3 z m 0 0"/>
    <path d="m 5 0 h 1 v 3 h -1 z m 0 0"/>
    <path d="m 7 0 h 1 v 3 h -1 z m 0 0"/>
    <path d="m 9 0 h 1 v 3 h -1 z m 0 0"/>
    <path d="m 10 13 h 1 v 3 h -1 z m 0 0"/>
    <path d="m 8 13 h 1 v 3 h -1 z m 0 0"/>
    <path d="m 6 13 h 1 v 3 h -1 z m 0 0"/>
    <path d="m 5 2 c -1.644531 0 -3 1.355469 -3 3 v 6 c 0 1.644531 1.355469 3 3 3 h 6 c 1.644531 0 3 -1.355469 3 -3 v -6 c 0 -1.644531 -1.355469 -3 -3 -3 z m 0 2 h 6 c 0.570312 0 1 0.429688 1 1 v 6 c 0 0.570312 -0.429688 1 -1 1 h -6 c -0.570312 0 -1 -0.429688 -1 -1 v -6 c 0 -0.570312 0.429688 -1 1 -1 z m 0 0"/>
</svg>
