<?xml version="1.0" encoding="utf-8"?>
<svg height="16px" viewBox="0 0 16 16" width="16px" xmlns="http://www.w3.org/2000/svg">
  <path d="M 8 0.5 C 7.449 0.5 7 0.949 7 1.5 L 7 6.5 C 7 7.051 7.449 7.5 8 7.5 C 8.551 7.5 9 7.051 9 6.5 L 9 1.5 C 9 0.949 8.551 0.5 8 0.5 Z M 4.863 2.316 C 4.734 2.332 4.609 2.375 4.496 2.441 C 1.762 4.023 0.422 7.258 1.238 10.313 C 2.059 13.363 4.832 15.496 7.988 15.5 C 11.148 15.504 13.93 13.379 14.754 10.332 C 15.582 7.281 14.254 4.043 11.523 2.453 C 11.047 2.172 10.434 2.332 10.156 2.813 C 10.023 3.039 9.984 3.313 10.051 3.57 C 10.121 3.828 10.285 4.047 10.516 4.18 C 12.473 5.32 13.418 7.621 12.828 9.809 C 12.234 11.992 10.258 13.504 7.996 13.5 C 5.73 13.496 3.758 11.98 3.172 9.793 C 2.586 7.605 3.535 5.305 5.496 4.172 C 5.973 3.895 6.137 3.285 5.859 2.809 C 5.727 2.578 5.512 2.41 5.254 2.344 C 5.129 2.309 4.996 2.301 4.863 2.316 L 4.863 2.316 Z M 4.863 2.316" style="fill: rgb(24, 24, 24);"/>
</svg>