<?xml version="1.0" encoding="utf-8"?>
<svg viewBox="0 0 16 16" xmlns="http://www.w3.org/2000/svg">
  <path d="M 8 0.5 C 7.449 0.5 7 0.949 7 1.5 L 7 6.5 C 7 7.051 7.449 7.5 8 7.5 C 8.551 7.5 9 7.051 9 6.5 L 9 1.5 C 9 0.949 8.551 0.5 8 0.5 Z M 1 1.5 L 3.051 3.551 C 0.934 5.668 0.398 8.906 1.719 11.59 C 3.043 14.273 5.934 15.828 8.898 15.441 C 11.867 15.055 14.266 12.816 14.859 9.887 C 15.453 6.953 14.109 3.957 11.523 2.453 C 11.047 2.172 10.434 2.336 10.156 2.812 C 9.879 3.289 10.039 3.902 10.516 4.18 C 12.367 5.258 13.324 7.387 12.898 9.492 C 12.477 11.594 10.77 13.184 8.645 13.461 C 6.516 13.734 4.461 12.633 3.516 10.707 C 2.57 8.781 2.949 6.48 4.465 4.965 L 6 6.5 L 6 2.496 C 6 1.977 5.551 1.5 5 1.5 L 1 1.5 Z M 1 1.5" style="fill: rgb(24, 24, 24);"/>
</svg>