<?xml version="1.0" encoding="utf-8"?>
<svg height="16px" viewBox="0 0 16 16" width="16px" xmlns="http://www.w3.org/2000/svg">
  <path d="m 8 0 c -0.550781 0 -1 0.449219 -1 1 v 5 c 0 0.550781 0.449219 1 1 1 s 1 -0.449219 1 -1 v -5 c 0 -0.550781 -0.449219 -1 -1 -1 z m -7 1 l 2.050781 2.050781 c -2.117187 2.117188 -2.652343 5.355469 -1.332031 8.039063 c 1.324219 2.683594 4.214844 4.238281 7.179688 3.851562 c 2.96875 -0.386718 5.367187 -2.625 5.960937 -5.554687 c 0.59375 -2.933594 -0.75 -5.929688 -3.335937 -7.433594 c -0.476563 -0.28125 -1.089844 -0.117187 -1.367188 0.359375 s -0.117188 1.089844 0.359375 1.367188 c 1.851563 1.078124 2.808594 3.207031 2.382813 5.3125 c -0.421876 2.101562 -2.128907 3.691406 -4.253907 3.96875 c -2.128906 0.273437 -4.183593 -0.828126 -5.128906 -2.753907 s -0.566406 -4.226562 0.949219 -5.742187 l 1.535156 1.535156 v -4.003906 c 0 -0.519532 -0.449219 -0.996094 -1 -0.996094 z m 0 0" style="fill: rgb(255, 255, 255);"/>
</svg>