<?xml version="1.0" encoding="utf-8"?>
<svg width="128" height="128" version="1" id="svg566" xmlns="http://www.w3.org/2000/svg" xmlns:xlink="http://www.w3.org/1999/xlink">
  <defs id="defs570">
    <linearGradient id="linearGradient873">
      <stop style="stop-opacity: 1; stop-color: rgb(7, 66, 122);" offset="0" id="stop869"/>
      <stop style="stop-opacity: 1; stop-color: rgb(0, 123, 238);" offset="0.072" id="stop877"/>
      <stop style="stop-opacity: 1; stop-color: rgb(7, 66, 122);" offset="0.147" id="stop879"/>
      <stop style="stop-opacity: 1; stop-color: rgb(7, 66, 122);" offset="0.852" id="stop881"/>
      <stop style="stop-opacity: 1; stop-color: rgb(0, 123, 238);" offset="0.933" id="stop883"/>
      <stop style="stop-opacity: 1; stop-color: rgb(7, 66, 122);" offset="1" id="stop871"/>
    </linearGradient>
    <linearGradient id="linearGradient875" x1="9.9999964" y1="66.000001" x2="118" y2="66.000001" gradientUnits="userSpaceOnUse" gradientTransform="matrix(1, 0, 0, 1, 0, 0)" xlink:href="#linearGradient873"/>
  </defs>
  <g transform="matrix(1, 0, 0, 1, 10, 8)">
    <g transform="matrix(1, 0, 0, 1, -10, -8)">
      <path d="M 118 66 C 118 36.107 93.893 12 64 12 C 34.107 12 10 36.107 10 66 C 10 95.893 34.107 120 64 120 C 93.893 120 118 95.893 118 66 Z" id="path550-3" style="fill:url(#linearGradient875);fill-opacity:1;stroke-width:1.92857" fill="#1ed760"/>
      <path d="M 118 62 C 118 32.107 93.893 8 64 8 C 34.107 8 10 32.107 10 62 C 10 91.893 34.107 116 64 116 C 93.893 116 118 91.893 118 62 Z" id="path550" style="stroke-width: 1.92857; fill: rgb(0, 116, 224);"/>
    </g>
    <path d="M 77.149 42.358 C 67.023 37.669 52.46 34.7 38.764 35.81 C 39.445 31.274 41.151 28.11 43.92 27.442 C 47.747 26.523 51.925 29.042 55.899 33.621 C 58.5 33.953 61.591 34.557 63.751 35.05 C 56.495 21.405 46.769 13.762 39.365 16.581 C 33.739 18.731 30.856 26.48 31.205 36.897 C 23.866 38.46 18.146 41.232 14.484 45.22 C 14.3 45.433 13.884 45.981 14.03 46.232 C 14.151 46.432 14.51 46.21 14.684 46.101 C 18.924 43.134 24.374 41.526 31.449 40.512 C 32.462 51.625 37.157 65.718 44.973 77.028 C 40.702 78.709 37.116 78.817 35.157 76.736 C 32.45 73.882 32.542 69.002 34.517 63.264 C 33.5 60.838 32.476 57.861 31.836 55.756 C 23.62 68.864 21.859 81.122 28.008 86.126 C 32.694 89.925 40.837 88.549 49.677 83.042 C 54.693 88.619 59.96 92.179 65.245 93.352 C 65.52 93.41 66.205 93.501 66.349 93.25 C 66.467 93.05 66.08 92.834 65.907 92.754 C 61.22 90.571 57.107 86.661 52.692 81.038 C 61.809 74.606 71.663 63.482 77.549 51.064 C 81.139 53.933 83.018 56.973 82.201 59.721 C 81.082 63.493 76.815 65.854 70.853 67.002 C 69.253 69.093 67.2 71.47 65.696 73.082 C 81.139 73.616 92.638 69.019 93.888 61.205 C 94.848 55.259 89.568 48.886 80.38 43.976 C 82.7 36.842 83.151 30.502 81.53 25.342 C 81.431 25.072 81.18 24.439 80.871 24.439 C 80.65 24.439 80.65 24.88 80.66 25.062 C 81.139 30.211 79.82 35.735 77.15 42.362 L 77.149 42.358 Z M 48.699 75.259 C 42.165 64.774 38.405 52.425 38.415 39.943 C 50.761 39.53 63.343 42.445 74.143 48.704 C 68.334 59.601 59.529 69.041 48.699 75.259 Z" style="fill: rgb(255, 255, 255);"/>
  </g>
</svg>