<?xml version="1.0" encoding="UTF-8" standalone="no"?>
<svg
   width="128"
   height="128"
   version="1"
   id="svg20"
   xmlns="http://www.w3.org/2000/svg"
   xmlns:svg="http://www.w3.org/2000/svg">
  <defs
     id="defs24" />
  <path
     style="fill:#056396;fill-opacity:1;stroke-width:1.85579"
     d="m 90.918974,118.1019 c -2.477626,1.19844 -5.438037,0.69205 -7.382168,-1.26335 2.39527,2.40916 6.491243,0.70268 6.491243,-2.70457 V 19.43334 c 0,-3.407256 -4.095973,-5.113651 -6.491243,-2.704345 1.944131,-1.955395 4.904542,-2.462125 7.382168,-1.263629 l 21.395956,10.349099 c 2.24841,1.087453 3.67811,3.374649 3.67811,5.883852 V 101.8695 c 0,2.50912 -1.4297,4.79626 -3.67811,5.88372 z"
     id="path2" />
  <path
     style="fill:#1eacf8;stroke-width:1.85579"
     d="m 90.918979,118.1019 c -2.477626,1.19843 -5.438037,0.69205 -7.382168,-1.26335 2.39527,2.40915 6.491243,0.70268 6.491243,-2.70458 V 90.14265 h 25.964986 v 11.72684 c 0,2.50913 -1.4297,4.79627 -3.67811,5.88372 z"
     id="path16-3" />
  <path
     style="fill:#006499;fill-opacity:1;stroke-width:1.85579"
     d="M 112.31736,25.830703 90.91776,15.467366 c -2.47682,-1.199561 -5.437232,-0.693558 -7.381358,1.261681 L 13.481549,79.821125 c -0.601699,0.551827 -1.340058,-2.87901 -1.370473,-2.12185 -0.03183,0.792382 0.02566,4.537123 -0.0046,4.770165 -0.176587,1.359002 0.283456,2.786304 1.379769,3.788748 l 5.722304,5.232071 c 1.542563,1.410656 3.865659,1.514291 5.526485,0.247338 L 109.09731,28.519199 c 2.83018,-2.159501 6.89531,-0.129125 6.89531,3.443914 v -0.249935 c 0,-2.508112 -1.42847,-4.794477 -3.67526,-5.882501 z"
     id="path4" />
  <path
     style="fill:#0072b0;stroke-width:1.85579"
     d="M 112.31736,20.263376 90.91776,9.9000394 C 88.44094,8.7004785 85.480528,9.2064812 83.536402,11.16172 L 13.481549,74.2538 c -1.884299,1.728113 -1.882132,4.711803 0.0047,6.437061 l 5.722304,5.23207 c 1.542563,1.410656 3.865658,1.514292 5.526484,0.247337 L 109.09731,22.951872 c 2.83018,-2.159499 6.89531,-0.129125 6.89531,3.443915 v -0.249936 c 0,-2.508111 -1.42847,-4.794476 -3.67526,-5.882501 z"
     id="path6" />
  <path
     style="fill:#006499;fill-opacity:1;stroke-width:1.85579"
     d="m 21.928517,37.120288 c -0.981198,0.04387 -1.947136,0.425639 -2.718419,1.130863 l -5.7268,5.23386 c -0.450268,0.411704 -1.407561,-3.139173 -1.415752,-2.489879 -0.07342,5.81907 -0.388049,6.82426 1.415752,8.927093 l 70.055446,66.916585 c 0.29555,0.29718 0.648648,0.49559 0.985879,0.7249 0.0022,9e-4 0.0052,-8.9e-4 0.0074,0 2.385151,1.21385 5.494826,-0.45884 5.494826,-3.42882 V 89.893845 L 24.733925,38.004681 c -0.830413,-0.633608 -1.82421,-0.928258 -2.805408,-0.884393 z"
     id="path10" />
  <path
     style="fill:#008eda;stroke-width:1.85579"
     d="m 112.31736,102.16957 -21.3996,10.36336 c -2.47682,1.19929 -5.437232,0.69328 -7.381358,-1.2617 L 13.481549,44.352219 c -1.884299,-1.727985 -1.882132,-4.711806 0.0047,-6.437009 l 5.722304,-5.23228 c 1.542563,-1.410448 3.865658,-1.514293 5.526484,-0.247078 l 84.362293,67.045043 c 2.83018,2.159425 6.89531,0.129387 6.89531,-3.443965 v 0.250197 c 0,2.507898 -1.42847,4.794243 -3.67526,5.882523 z"
     id="path12" />
  <path
     style="fill:#1eacf8;stroke-width:1.85579"
     d="m 90.918974,112.53458 c -2.477626,1.19843 -5.438037,0.69205 -7.382168,-1.26335 2.39527,2.40915 6.491243,0.70268 6.491243,-2.70458 V 13.866013 c 0,-3.407255 -4.095973,-5.1136507 -6.491243,-2.704345 1.944131,-1.9553947 4.904542,-2.4621248 7.382168,-1.2636288 L 112.31493,20.247139 c 2.24841,1.087453 3.67811,3.374649 3.67811,5.88385 v 70.17118 c 0,2.509127 -1.4297,4.796271 -3.67811,5.883721 z"
     id="path16" />
  <path
     id="path16-5"
     style="fill:#056396;fill-opacity:1;stroke-width:1.85579"
     d="m 88.021484,9.2558594 c -1.78859,0.03146 -3.402445,0.7707156 -4.484375,1.9296876 2.506568,-2.4116957 6.472657,-0.67389 6.472657,2.733359 0,0 0,3.183593 0,4.77539 0,30.04883 0,90.146484 0,90.146484 -0.203706,3.23087 -4.149454,4.77133 -6.482422,2.42484 1.716701,1.72666 4.176287,2.45234 6.469788,1.7113 l 0.01263,1.1305 c 0.03808,3.40704 -3.966089,5.10701 -6.472657,2.69531 1.680432,1.94698 4.899473,2.54591 7.382813,1.28907 l 0.291016,-0.16016 c 2.248397,-1.08745 3.685094,-3.39902 3.677734,-5.9082 V 15.964844 c 0.007,-2.509189 -1.429337,-4.820752 -3.677734,-5.908203 L 90.919922,9.8964844 C 89.990813,9.4470499 89.001156,9.2386275 88.021484,9.2558594 Z" />
</svg>
