<svg enable-background="new" height="128" viewBox="0 0 128 128" width="128" xmlns="http://www.w3.org/2000/svg" xmlns:xlink="http://www.w3.org/1999/xlink">
  <linearGradient id="linearGradient1697">
    <stop offset="0" stop-color="#deddda"/>
    <stop offset=".04545455" stop-color="#eeeeec"/>
    <stop offset=".09090909" stop-color="#deddda"/>
    <stop offset=".90909094" stop-color="#deddda"/>
    <stop offset=".95454544" stop-color="#eeeeec"/>
    <stop offset="1" stop-color="#c0bfbc"/>
  </linearGradient>
  <linearGradient id="linearGradient1049" gradientUnits="userSpaceOnUse" x1="20" x2="108" xlink:href="#linearGradient1697" y1="238" y2="238"/>
  <linearGradient id="linearGradient1185" gradientUnits="userSpaceOnUse" x1="52" x2="76" xlink:href="#linearGradient1697" y1="216" y2="216"/>
  <linearGradient id="linearGradient1348" gradientUnits="userSpaceOnUse" x1="65" x2="65" y1="204" y2="200">
    <stop offset="0" stop-color="#9a9996"/>
    <stop offset="1" stop-color="#c0bfbc"/>
  </linearGradient>
  <g transform="translate(0 -172)">
    <rect fill="url(#linearGradient1049)" height="58" rx="8" width="88" x="20" y="234"/>
    <rect fill="#f6f5f4" height="108" rx="8" width="88" x="20" y="180"/>
    <rect fill="#1a5fb4" height="98" rx="4" width="80" x="24" y="186"/>
    <rect fill="#3584e4" height="98" rx="4" width="80" x="24" y="184"/>
    <path d="m24 216h80v2h-80z" fill="#1c71d8"/>
    <path d="m24 248h80v2h-80z" fill="#1c71d8"/>
    <g id="g1088">
      <path d="m55 196h18c1.662 0 3 1 3 3v5h-3.96875l-.03125-4h-16l.03125 4h-4.03125v-5c0-1.662 1.338-3 3-3z" fill="url(#linearGradient1185)"/>
      <rect height="4" opacity=".1" ry="1.5" width="24" x="52" y="202"/>
      <path d="m55 200c-1.662 0-3 1.338-3 3v1h4v-2h16v2h4v-1c0-1.662-1.338-3-3-3z" fill="url(#linearGradient1348)"/>
      <path d="m56 202h16v2h-16z" opacity=".1"/>
    </g>
    <use height="100%" transform="translate(0 32)" width="100%" xlink:href="#g1088"/>
    <use height="100%" transform="translate(0 64)" width="100%" xlink:href="#g1088"/>
  </g>
</svg>
