<svg height="256" viewBox="0 0 67.73 67.73" width="256" xmlns="http://www.w3.org/2000/svg" xmlns:xlink="http://www.w3.org/1999/xlink">
  <radialGradient id="radialGradient1095" cx="25.661478" cy="81.989014" gradientTransform="matrix(.29486263 .53797558 -.29256822 .16057217 53.690936 -22.345225)" gradientUnits="userSpaceOnUse" r="50.710979">
    <stop offset="0" stop-color="#af46d2"/>
    <stop offset=".87310451" stop-color="#755ade"/>
    <stop offset="1" stop-color="#6c4998"/>
  </radialGradient>
  <radialGradient id="radialGradient1129" cx="-74.551453" cy="142.05174" gradientTransform="matrix(.94684785 .18054372 -.11460875 .6018683 96.685467 -36.311191)" gradientUnits="userSpaceOnUse" r="69.5">
    <stop offset="0" stop-color="#d44168"/>
    <stop offset=".24420314" stop-color="#dc175e"/>
    <stop offset="1" stop-color="#f1d257"/>
  </radialGradient>
  <radialGradient id="radialGradient1111" cx="-31.832703" cy="121.48821" gradientTransform="matrix(.51370654 -.0184016 .0139731 .3906052 43.425667 -16.650357)" gradientUnits="userSpaceOnUse" r="40.896725">
    <stop offset="0" stop-color="#fb9823"/>
    <stop offset="1" stop-color="#fcd637"/>
  </radialGradient>
  <radialGradient id="radialGradient1119" cx="-56.907509" cy="114.63695" gradientTransform="matrix(2.8551182 .87965988 -.54300956 1.7648293 278.53382 -14.043586)" gradientUnits="userSpaceOnUse" r="64.15332">
    <stop offset="0" stop-color="#fe3853"/>
    <stop offset="1" stop-color="#f7e04d"/>
  </radialGradient>
  <path d="m34.065633 232.2427a29.633333 29.633333 0 0 0 -29.6333327 29.63333 29.633333 29.633333 0 0 0 .010853.30954 29.633333 29.633333 0 0 1 29.6224797-29.41371 29.633333 29.633333 0 0 1 29.622481 29.32379 29.633333 29.633333 0 0 0 .01085-.21962 29.633333 29.633333 0 0 0 -29.633334-29.63333z" fill="#fff" opacity=".3" transform="translate(-119.96245 -263.13165)"/>
  <g transform="translate(.044912 6.400464)">
    <path d="m35.163436-2.4549805c-9.2899.012837-11.8012 2.47964559-16.13 5.7186479 5.0233-1.8083995 4.7674-2.52113341 12.3411-2.55963711 12.1488-.0000474 21.9974 8.48299821 21.9974 18.94740071 0 10.464406-5.4283 15.661583-17.5771 15.661536 1.1093 2.919882 9.2195 2.211852 9.2195 2.211852 14.9734-.000105 17.2608 2.428687 17.2611-12.659477.0002-15.0884895-12.1383-27.3202217-27.112-27.3203225z" fill="url(#radialGradient1095)"/>
    <path d="m12.331167 8.7320149c-2.0112 1.3416141-7.8836 5.5366441-7.893 17.9382011 0 16.376275 13.2666 29.651871 29.6319 29.651871 16.3652 0 29.6318-13.275596 29.6318-29.651871 0-1.724308-.1534-3.445184-.4538-5.143085.039.579991.06 1.161095.062 1.742415-.0003 15.075943-12.2137 27.297219-27.2795 27.296988-15.0654-.00023-27.2783-12.22137-27.2785-27.296988.0004-1.626968 1.1062-2.729506 1.1853-3.844405.4226-5.957546.8187-5.896557 2.3933-10.6931261z" fill="url(#radialGradient1129)"/>
    <path d="m32.139067 17.801161c-2.7399-1.437997-8.0177 1.960368-8.0202 8.359074 0 9.741971 7.7057 17.639345 17.2109 17.639136 9.5049-.000254 17.2101-7.897498 17.21-17.639136-.01-3.225577 1.2476-3.993844-.391-6.747779 0 0-.1135 3.493507-1.2414 5.430476-3.3388 5.733596-7.0257 9.078288-17.5628 9.352063-4.5311-.189906-9.9583-3.835555-9.9582-9.579689 0-3.136438.3742-4.840748 2.7527-6.814145z" fill="url(#radialGradient1111)"/>
    <path d="m239.39844 109.17773a112 110.98709 0 0 0 -.25391-2.06835 112 110.98709 0 0 0 -2.45117-10.826177 112 110.98709 0 0 0 -3.5293-10.527344 112 110.98709 0 0 0 -4.57422-10.126953 112 110.98709 0 0 0 -5.57031-9.623047 112 110.98709 0 0 0 -4.31445-5.978515c-2.27175-2.585255-4.69623-5.210756-7.36328-7.9375 7.62103 26.582355 8.90754 38.251346 8.23437 57.816406-2.77658 32.09683-29.67138 66.31468-66.27148 66.31445-36.59897-.00099-66.266005-29.69083-66.265628-66.31445.037798-30.645638 19.141268-52.020591 45.343748-64.173828-53.717287-26.923148-97.101836 29.799892-99.525388 68.593748-.000756 57.1357 46.285703 103.45396 103.382808 103.45508 57.09863.00063 103.38553-46.31814 103.38477-103.45508-.002-1.81355-.14698-3.43932-.22656-5.14844z" fill="url(#radialGradient1119)" transform="matrix(.26457031 0 0 .26457031 -.044714 -6.395892)"/>
  </g>
</svg>
