<?xml version="1.0" standalone="no"?>
<!DOCTYPE svg PUBLIC "-//W3C//DTD SVG 20010904//EN"
 "http://www.w3.org/TR/2001/REC-SVG-20010904/DTD/svg10.dtd">
<svg version="1.0" xmlns="http://www.w3.org/2000/svg"
 width="180.000000pt" height="179.000000pt" viewBox="0 0 180.000000 179.000000"
 preserveAspectRatio="xMidYMid meet">

<g transform="translate(0.000000,179.000000) scale(0.100000,-0.100000)"
fill="#000000" stroke="none">
<path d="M825 1784 c-22 -3 -70 -9 -107 -15 -60 -9 -68 -13 -68 -32 1 -67 91
-172 168 -195 91 -27 180 -9 248 51 49 43 84 102 84 141 0 22 -5 25 -67 35
-84 13 -205 20 -258 15z"/>
<path d="M382 1620 c-87 -65 -169 -151 -229 -238 l-38 -54 24 -19 c53 -43 170
-50 245 -14 92 44 140 123 141 230 0 70 -25 144 -51 152 -7 2 -48 -23 -92 -57z"/>
<path d="M1307 1656 c-41 -62 -46 -170 -11 -239 23 -45 72 -95 118 -119 75
-38 193 -33 247 11 l23 19 -38 58 c-49 74 -183 209 -256 257 -30 21 -58 37
-61 37 -4 0 -14 -11 -22 -24z"/>
<path d="M845 1435 c-16 -15 -25 -36 -25 -55 0 -19 9 -40 25 -55 15 -16 36
-25 55 -25 19 0 40 9 55 25 16 15 25 36 25 55 0 19 -9 40 -25 55 -15 16 -36
25 -55 25 -19 0 -40 -9 -55 -25z"/>
<path d="M505 1295 c-50 -49 -15 -135 55 -135 41 0 80 39 80 80 0 41 -39 80
-80 80 -19 0 -40 -9 -55 -25z"/>
<path d="M1185 1295 c-16 -15 -25 -36 -25 -55 0 -19 9 -40 25 -55 15 -16 36
-25 55 -25 19 0 40 9 55 25 16 15 25 36 25 55 0 19 -9 40 -25 55 -15 16 -36
25 -55 25 -19 0 -40 -9 -55 -25z"/>
<path d="M29 1083 c-17 -87 -17 -279 0 -365 15 -76 22 -80 89 -52 87 36 152
136 152 234 0 98 -67 199 -156 236 -62 26 -70 21 -85 -53z"/>
<path d="M1665 1122 c-133 -73 -173 -248 -85 -371 55 -75 170 -129 184 -85 33
110 33 357 0 467 -8 24 -41 21 -99 -11z"/>
<path d="M365 955 c-16 -15 -25 -36 -25 -55 0 -19 9 -40 25 -55 49 -50 135
-15 135 55 0 41 -39 80 -80 80 -19 0 -40 -9 -55 -25z"/>
<path d="M1332 960 c-30 -28 -36 -62 -18 -98 39 -76 146 -46 146 40 0 66 -80
102 -128 58z"/>
<path d="M505 615 c-16 -15 -25 -36 -25 -55 0 -19 9 -40 25 -55 15 -16 36 -25
55 -25 19 0 40 9 55 25 16 15 25 36 25 55 0 19 -9 40 -25 55 -15 16 -36 25
-55 25 -19 0 -40 -9 -55 -25z"/>
<path d="M1185 614 c-32 -35 -32 -78 0 -109 34 -35 86 -34 114 1 64 82 -44
183 -114 108z"/>
<path d="M185 515 c-71 -28 -74 -36 -30 -102 49 -74 183 -209 257 -258 68 -44
78 -41 104 37 39 119 -16 251 -131 310 -51 27 -147 33 -200 13z"/>
<path d="M1460 521 c-69 -21 -131 -74 -166 -141 -26 -51 -25 -163 2 -214 11
-22 25 -41 30 -43 33 -11 254 189 324 291 40 59 35 74 -36 98 -52 18 -112 21
-154 9z"/>
<path d="M865 488 c-49 -28 -59 -78 -24 -122 29 -37 89 -37 118 0 35 45 24 96
-26 122 -27 15 -42 15 -68 0z"/>
<path d="M820 255 c-59 -18 -119 -71 -148 -127 -27 -54 -28 -85 -4 -92 44 -14
155 -26 232 -26 77 0 188 12 233 26 23 7 22 38 -4 91 -27 56 -91 110 -153 128
-60 18 -97 18 -156 0z"/>
</g>
</svg>
