<?xml version="1.0" encoding="utf-8"?>
<svg height="496px" width="496px" id="svg4" version="1.1" viewBox="75.333 105.6 305.066 316.8" xmlns="http://www.w3.org/2000/svg">
  <path d="M 294.921 115.028 C 259.01 115.028 227.288 141.54 222.896 176.327 C 222.6 179.239 222.522 181.337 222.499 183.977 L 222.539 326.204 C 222.539 353.487 201.717 372.055 175.7 372.055 C 149.647 372.055 128.658 351.637 128.658 326.159 C 129.085 298.191 151.909 280.452 178.533 279.68 L 178.675 279.68 L 205.703 279.436 L 205.703 241.883 L 178.675 242.084 C 130.216 241.656 91.752 278.872 90.347 326.183 C 90.347 372.191 128.889 409.699 175.684 409.699 C 219.825 409.699 256.559 375.879 260.571 333.559 C 261.149 319.154 260.868 300.144 260.868 300.144 C 260.948 292.316 260.746 295.127 260.827 279.584 L 294.355 279.341 C 320.297 279.521 320.005 241.194 294.055 241.721 L 260.82 241.964 C 260.82 222.671 261.129 203.497 260.82 184.174 C 260.843 167.462 276.981 152.693 294.887 152.693 C 312.798 152.693 331.743 161.462 331.743 184.174 C 331.743 187.419 331.677 189.306 331.494 190.508 C 329.495 201.041 336.831 211.109 347.64 212.628 C 358.449 214.13 368.376 206.474 369.447 195.82 C 370.067 191.608 370.044 187.891 370.044 184.176 C 370.044 144.127 333.548 115.097 294.894 115.097 Z" style=""/>
</svg>