<?xml version="1.0" encoding="utf-8"?>
<svg viewBox="0 0 1920 1080" xmlns="http://www.w3.org/2000/svg">
  <rect style="filter: none; paint-order: fill; stroke-dashoffset: 50px; stroke-miterlimit: 28; stroke: rgb(0, 0, 0); stroke-width: 2px; fill: rgb(137, 180, 250);" transform="matrix(0.707107, 0.707107, -0.707107, 0.707107, 148.900116, -914.633179)" width="2000.005" height="2000.004" rx="256" ry="256"/>
  <rect style="filter: none; paint-order: fill; stroke-dashoffset: 50px; stroke-miterlimit: 28; fill: rgb(203, 166, 247); stroke: rgb(0, 0, 0); stroke-width: 2px;" transform="matrix(0.707107, 0.707107, -0.707107, 0.707107, -315.578949, -1830.88208)" width="2000.005" height="2000.004" rx="256" ry="256"/>
  <rect style="filter: none; paint-order: fill; stroke-dashoffset: 50px; stroke-miterlimit: 28; stroke: rgb(0, 0, 0); stroke-width: 2px; fill: rgb(180, 190, 254);" transform="matrix(0.707107, 0.707107, -0.707107, 0.707107, -692.573608, -596.003601)" width="2000.006" height="2000.005" rx="256" ry="256"/>
  <rect style="filter: none; paint-order: fill; stroke-dashoffset: 50px; stroke-miterlimit: 28; fill: rgb(116, 199, 236); stroke: rgb(0, 0, 0); stroke-width: 2px;" transform="matrix(0.707107, 0.707107, -0.707107, 0.707107, 884.111328, 196.614594)" width="2000.011" height="2000.01" rx="256" ry="256"/>
  <rect style="filter: none; paint-order: fill; stroke-dashoffset: 50px; stroke-miterlimit: 28; stroke: rgb(0, 0, 0); stroke-width: 2px; fill: rgb(203, 166, 247);" transform="matrix(0.707107, 0.707107, -0.707107, 0.707107, 1996.573975, -584.888428)" width="2000.008" height="2000.007" rx="256" ry="256"/>
  <rect style="filter: none; paint-order: fill; stroke-dashoffset: 50px; stroke-miterlimit: 28; stroke: rgb(0, 0, 0); stroke-width: 2px; fill: rgb(180, 190, 254);" transform="matrix(0.707107, 0.707107, -0.707107, 0.707107, 2289.07373, -1226.820557)" width="2000.006" height="2000.005" rx="256" ry="256"/>
  <rect style="filter: none; paint-order: fill; stroke-dashoffset: 50px; stroke-miterlimit: 28; stroke: rgb(0, 0, 0); stroke-width: 2px; fill: rgb(116, 199, 236);" transform="matrix(0.707107, 0.707107, -0.707107, 0.707107, 1590.74939, -2497.351318)" width="2000.008" height="2000.007" rx="256" ry="256"/>
  <rect style="filter: none; paint-order: fill; stroke-dashoffset: 50px; stroke-miterlimit: 28; stroke: rgb(0, 0, 0); stroke-width: 2px; fill: rgb(137, 180, 250);" transform="matrix(0.707107, 0.707107, -0.707107, 0.707107, 2354.73291, -16.947227)" width="2000.007" height="2000.006" rx="256" ry="256"/>
</svg>