<svg enable-background="new" height="128" viewBox="0 0 128 128" width="128" xmlns="http://www.w3.org/2000/svg" xmlns:xlink="http://www.w3.org/1999/xlink"><linearGradient id="a" gradientUnits="userSpaceOnUse" x1="48" x2="464" y1="44" y2="44"><stop offset="0" stop-color="#77767b"/><stop offset=".05" stop-color="#c0bfbc"/><stop offset=".1" stop-color="#9a9996"/><stop offset=".9" stop-color="#9a9996"/><stop offset=".95" stop-color="#c0bfbc"/><stop offset="1" stop-color="#77767b"/></linearGradient><radialGradient id="b" cx="64" cy="194.19" gradientTransform="matrix(-4.7273 .00000079 -.0000003 -1.6364 238.55 49.766)" gradientUnits="userSpaceOnUse" r="44"><stop offset="0" stop-color="#fff"/><stop offset="1" stop-color="#fff" stop-opacity=".094118"/></radialGradient><g transform="translate(0 -172)"><rect fill="url(#a)" height="376" rx="32" transform="matrix(.25 0 0 .25 0 225)" width="416" x="48" y="-124"/><rect fill="#deddda" height="96" rx="8" stroke-width=".25" width="104" x="12" y="184"/><rect fill="#241f31" height="88" rx="4" transform="scale(1 -1)" width="96" x="16" y="-276"/><path d="m-108-272h88v78h-88z" fill="url(#b)" opacity=".05" transform="scale(-1)"/><g fill="#fff" transform="translate(-2 -2)"><path d="m44.012 210.89-14.012-7.6157v4.7282l9.7107 4.6295v.1422l-9.7107 5.2283v4.7282l14.012-8.2145z"/><path d="m48 226 .000002 4h16l-.000002-4z"/></g></g><ellipse cx="52.633373" cy="93.544456" fill="#fff" rx="7.53715" ry="7.347138"/><ellipse cx="73.788063" cy="93.924484" fill="#fff" rx="7.53715" ry="7.347138"/><g clip-rule="evenodd" fill-rule="evenodd" transform="matrix(1.0666667 0 0 1.0666667 -316.74576 -905.57052)"><path d="m346.36134 941.13928c.75907 0 1.36631-1.4423 1.36631-3.2967s-.60724-3.29671-1.36631-3.29671c-.75906 0-1.36631 1.44231-1.36631 3.29671s.60725 3.2967 1.36631 3.2967z" fill="#c0c81f" stroke-width="1.250599"/><path d="m385.521 916.42017c-1.8544-1.95741-10.3022.41208-15.4533 3.60577-4.01786-2.06044-8.85989-3.2967-14.01098-3.2967-5.25413 0-10.09616 1.23626-14.11402 3.2967-5.1511-3.19369-13.70192-5.6662-15.4533-3.60577-1.85439 2.06044 1.33929 10.61126 5.15111 15.35029-.30907 1.23625-.51511 2.47251-.51511 3.8118 0 4.12089 1.75137 7.9327 4.739 11.02336h16.99863c-.51511-1.03022.20605-1.64836 3.29671-1.64836 3.09066.10303 3.70878.61814 3.2967 1.64836h16.99862c2.98765-3.09066 4.73902-7.0055 4.73902-11.02336 0-1.33929-.20604-2.57555-.5151-3.8118 3.60576-4.73903 6.69642-13.39287 4.84202-15.35029zm-39.14835 27.19781c-3.60578 0-6.59341-2.98765-6.59341-6.59341 0-3.60577 2.98763-6.5934 6.59341-6.5934 3.60576 0 6.5934 2.98763 6.5934 6.5934 0 3.60576-2.98764 6.59341-6.5934 6.59341zm19.36813 0c-3.60577 0-6.59341-2.98765-6.59341-6.59341 0-3.60577 2.98764-6.5934 6.59341-6.5934s6.59341 2.98763 6.59341 6.5934c0 3.60576-2.88462 6.59341-6.59341 6.59341z" fill="#a85a25" stroke-width="1.03022"/><g fill="#2b1100" stroke-width="2.55301" transform="matrix(.40353135 0 0 .40353135 307.58788 578.71026)"><path d="m168.5072 903.26472c15.31805-19.14757 46.72009-28.33841 67.65477-15.06276-24.50889-3.82951-46.72009 2.55301-67.65477 15.06276z"/><path d="m167.486 898.66931c8.68022-20.42409 34.46564-33.69975 55.14502-26.55131-21.70058 2.80831-39.31636 11.23323-55.14502 26.55131z"/><path d="m167.23069 908.62604c15.82867-15.06275 50.80491-20.16879 61.52756-4.34011-21.70059-6.89313-40.59288-3.82953-61.52756 4.34011z"/></g><g fill="#2b1100" stroke-width="2.55301" transform="matrix(.40353135 0 0 .40353135 307.58788 578.71026)"><path d="m71.492797 903.26472c-15.318064-19.14757-46.720094-28.33841-67.6547793-15.06276 24.5089003-3.82951 46.7200923 2.55301 67.6547793 15.06276z"/><path d="m72.514 898.66931c-8.680236-20.42409-34.465642-33.69975-55.145027-26.55131 21.70059 2.80831 39.316362 11.23323 55.145027 26.55131z"/><path d="m72.769301 908.62604c-15.828665-15.06275-50.80491-20.16879-61.527553-4.34011 21.70059-6.89313 40.592868-3.82953 61.527553 4.34011z"/></g><path d="m328.81384 939.29106c-2.57555 0-4.73902 1.33927-5.76924 3.39971-.10302 0-.20604 0-.30907 0-2.78158 0-5.15109 2.06045-5.15109 4.636 0 3.60577 3.70878 5.56319 7.10851 4.32692 2.06045 2.98764 6.49039 3.19369 8.13874 0 2.47253-.10302 6.49038-.51511 7.10852-4.32692.41208-2.57555-2.26649-4.636-5.1511-4.636-.10302 0-.20604 0-.30907 0-.82417-2.06044-3.09066-3.39971-5.6662-3.39971zm54.3956 0c2.57554 0 4.73901 1.33927 5.76923 3.39971h.30906c1.44231 0 5.1511 2.06045 5.1511 4.636 0 3.60577-3.70879 5.56319-7.10852 4.32692-2.06043 2.98764-6.49038 3.19369-8.13873 0-2.47252-.10302-6.49039-.51511-7.10851-4.32692-.4121-2.57555 3.70879-4.636 5.1511-4.636h.30905c.82418-2.06044 3.09067-3.39971 5.66622-3.39971z" fill="#483737" stroke-width="1.03022"/><path d="m365.51163 941.13928c.75905 0 1.3663-1.4423 1.3663-3.2967s-.60725-3.29671-1.3663-3.29671c-.75906 0-1.36631 1.44231-1.36631 3.29671s.60725 3.2967 1.36631 3.2967z" fill="#c0c81f" stroke-width="1.250599"/></g></svg>